<?xml version="1.0" standalone="no"?>
<svg viewBox="0 0 200 200" xmlns="http://www.w3.org/2000/svg">
  <path fill="#FF0066" d="M39.9,-60.3C51.1,-55,59.1,-42.8,65.9,-29.6C72.6,-16.4,78.2,-2.2,77.1,11.6C75.9,25.4,68,38.8,58.4,51.4C48.7,64.1,37.3,76,24.2,77.8C11.1,79.6,-3.7,71.2,-16.1,63.6C-28.6,56,-38.7,49.1,-51.4,40.9C-64.1,32.7,-79.5,23.2,-83.8,10.5C-88.1,-2.3,-81.3,-18.2,-72.7,-31.6C-64,-45,-53.5,-56,-41.1,-60.7C-28.7,-65.5,-14.3,-64,0,-64.1C14.4,-64.1,28.8,-65.6,39.9,-60.3Z" transform="translate(100 100)" />
</svg>
